<?xml version="1.0" encoding="UTF-8" standalone="no"?>
<!-- Created with Inkscape (http://www.inkscape.org/) -->

<svg
   width="210mm"
   height="297mm"
   viewBox="0 0 210 297"
   version="1.1"
   id="svg5"
   sodipodi:docname="star.svg"
   inkscape:version="1.1.2 (0a00cf5339, 2022-02-04)"
   xmlns:inkscape="http://www.inkscape.org/namespaces/inkscape"
   xmlns:sodipodi="http://sodipodi.sourceforge.net/DTD/sodipodi-0.dtd"
   xmlns="http://www.w3.org/2000/svg"
   xmlns:svg="http://www.w3.org/2000/svg">
  <sodipodi:namedview
     id="namedview7"
     pagecolor="#ffffff"
     bordercolor="#666666"
     borderopacity="1.0"
     inkscape:pageshadow="2"
     inkscape:pageopacity="0.0"
     inkscape:pagecheckerboard="0"
     inkscape:document-units="mm"
     showgrid="false"
     inkscape:zoom="0.47749719"
     inkscape:cx="50.262075"
     inkscape:cy="544.50582"
     inkscape:window-width="1366"
     inkscape:window-height="700"
     inkscape:window-x="0"
     inkscape:window-y="0"
     inkscape:window-maximized="1"
     inkscape:current-layer="layer1" />
  <defs
     id="defs2" />
  <g
     inkscape:label="Layer 1"
     inkscape:groupmode="layer"
     id="layer1">
    <path
       sodipodi:type="star"
       style="fill:#1a1a1a"
       id="path625"
       inkscape:flatsided="false"
       sodipodi:sides="5"
       sodipodi:cx="364.78632"
       sodipodi:cy="556.80566"
       sodipodi:r1="158.56491"
       sodipodi:r2="46.52787"
       sodipodi:arg1="0.95238703"
       sodipodi:arg2="1.4812767"
       inkscape:rounded="-0.02"
       inkscape:randomized="0"
       d="m 456.7127,686.00462 c 1.81804,-1.58811 -90.18066,-82.88142 -87.76679,-82.85739 2.55254,0.0254 -100.81951,79.70086 -98.62829,81.0103 2.07219,1.2383 50.95757,-111.37868 51.68064,-109.07552 0.7646,2.43545 -106.95497,-71.25614 -107.52319,-68.76752 -0.53736,2.35342 121.67416,14.04562 119.70717,15.44501 -2.07998,1.47979 34.71771,-123.73957 32.17531,-123.51096 -2.40429,0.21619 24.2412,120.05934 22.30247,118.62106 -2.05011,-1.5209 128.41169,-5.21913 127.40862,-7.56645 -0.94857,-2.21981 -106.69227,60.15513 -105.92349,57.86683 0.81294,-2.41975 44.64508,120.51398 46.56755,118.83464 z"
       transform="matrix(0.26458333,0,0,0.26458333,8.3546292,5.0601301)"
       inkscape:transform-center-x="-0.094248072"
       inkscape:transform-center-y="-2.9158987" />
  </g>
</svg>
